<!DOCTYPE svg PUBLIC "-//W3C//DTD SVG 1.1//EN" "http://www.w3.org/Graphics/SVG/1.1/DTD/svg11.dtd" [
	<!ENTITY ns_flows "http://ns.adobe.com/Flows/1.0/">
]>
<svg xmlns="http://www.w3.org/2000/svg" width="455" height="100" viewBox="0 0 455 100">
  <circle fill="#FFF" cx="50.636" cy="54.682" r="2.175"/>
  <circle fill="#FFF" cx="60" cy="40.636" r="3.263"/>
  <circle fill="#FFF" cx="69.365" cy="45.317" r="3.263"/>
  <circle fill="#FFF" cx="78.729" cy="50" r="3.263"/>
  <circle fill="#FFF" cx="69.365" cy="54.683" r="3.263"/>
  <circle fill="#FFF" cx="88.093" cy="54.683" r="3.263"/>
  <circle fill="#FFF" cx="88.092" cy="64.047" r="2.176"/>
  <circle fill="#FFF" cx="97.457" cy="59.363" r="2.175"/>
  <circle fill="#FFF" cx="97.458" cy="50" r="3.262"/>
  <circle fill="#FFF" cx="88.093" cy="45.317" r="3.263"/>
  <circle fill="#FFF" cx="78.729" cy="59.363" r="2.176"/>
  <circle fill="#FFF" cx="97.458" cy="40.636" r="3.262"/>
  <circle fill="#FFF" cx="106.821" cy="35.954" r="2.175"/>
  <circle fill="#FFF" cx="106.821" cy="54.683" r="2.175"/>
  <circle fill="#FFF" cx="78.729" cy="40.636" r="2.176"/>
  <circle fill="#FFF" cx="69.364" cy="64.047" r="2.175"/>
  <circle fill="#FFF" cx="60" cy="50" r="3.263"/>
  <circle fill="#EC0B43" cx="50.636" cy="45.317" r="3.263"/>
  <circle fill="#FFF" cx="41.271" cy="59.363" r="1.272"/>
  <circle fill="#FFF" cx="41.271" cy="50" r="1.272"/>
  <circle fill="#FFF" cx="60" cy="59.298" r="1.271"/>
  <circle fill="#FFF" cx="60" cy="31.272" r="1.271"/>
  <circle fill="#FFF" cx="78.662" cy="68.729" r="1.272"/>
  <circle fill="#FFF" cx="50.636" cy="35.953" r="1.272"/>
  <circle fill="#FFF" cx="69.365" cy="35.953" r="1.272"/>
  <circle fill="#FFF" cx="78.662" cy="68.729" r="1.272"/>
  <circle fill="#FFF" cx="125.55" cy="45.317" r="1.272"/>
  <circle fill="#FFF" cx="106.821" cy="64.047" r="1.271"/>
  <circle fill="#FFF" cx="116.186" cy="40.636" r="3.263"/>
  <circle fill="#FFF" cx="106.821" cy="45.317" r="3.262"/>
  <circle fill="#FFF" cx="116.186" cy="59.363" r="1.271"/>
  <circle fill="#FFF" cx="116.186" cy="50" r="2.175"/>
  <circle fill="#FFF" cx="88.092" cy="35.953" r="1.271"/>
  <circle fill="#FFF" cx="116.186" cy="31.272" r="1.271"/>
  <circle fill="#FFF" cx="125.55" cy="35.953" r="1.272"/>
  <path fill="#FFF" d="M153.03 43.275c.284-.682.337-1.237.16-1.654-.136-.316-.406-.555-.803-.71-.968-.353-1.738.108-2.252 1.356l-3.617 8.772-4.99-8.96c-.293-.553-.648-.93-1.054-1.114-.412-.188-.868-.16-1.354.093-.45.25-.697.64-.733 1.154-.034.5.097.998.392 1.48l6.127 10.653c-.27.7-.56 1.23-.86 1.572-.298.34-.643.505-1.055.505-.186 0-.36-.018-.52-.05-.16-.034-.35-.095-.564-.18-.228-.092-.385-.145-.47-.16-.92-.303-1.55-.043-1.852.752-.337.9-.01 1.63.974 2.167.648.358 1.52.54 2.59.54 1.19 0 2.184-.452 2.95-1.345.753-.88 1.555-2.307 2.382-4.244l4.55-10.625zM158.007 59.23c.52 0 .94-.164 1.242-.483.3-.32.452-.736.452-1.238v-6.185h8.19v6.184c0 .5.147.916.438 1.234.292.32.715.485 1.255.485.522 0 .94-.164 1.242-.485.3-.318.452-.734.452-1.236V42.52c0-.502-.152-.923-.45-1.25-.304-.33-.722-.5-1.245-.5-.54 0-.964.168-1.257.5-.29.327-.438.747-.438 1.248v5.76h-8.19v-5.76c0-.5-.15-.922-.45-1.25-.302-.33-.72-.498-1.243-.498-.54 0-.963.167-1.257.5-.29.326-.437.747-.437 1.247v14.99c0 .5.148.915.438 1.235.293.322.717.487 1.257.487zM177.7 59.23c.544 0 1.07-.327 1.567-.972l8.396-11.47v10.72c0 .484.146.895.436 1.22.293.332.724.5 1.283.5.542 0 .96-.163 1.245-.485.28-.318.422-.733.422-1.234V42.52c0-1.16-.543-1.748-1.613-1.748-.615 0-1.16.317-1.62.943L179.47 53.26V42.52c0-.5-.147-.922-.437-1.25-.293-.33-.716-.498-1.257-.498-.56 0-.987.168-1.27.5-.282.327-.424.746-.424 1.247v14.988c0 .537.143.963.425 1.263.285.304.686.46 1.19.46zM206.27 49.347c.645-.344 1.172-.84 1.565-1.484.44-.72.663-1.503.663-2.33 0-3.246-2.278-4.893-6.77-4.893-1.583 0-3.02.107-4.273.32-1.06.186-1.597.817-1.597 1.877V57.27c0 1.045.53 1.65 1.572 1.798 1.25.194 2.766.292 4.51.292 4.93 0 7.43-1.922 7.43-5.71 0-1.06-.3-1.985-.894-2.75-.543-.702-1.286-1.223-2.207-1.553zm-4.568-.856h-2.588v-4.87c.804-.08 1.584-.12 2.324-.12 2.418 0 3.593.768 3.593 2.35 0 1.777-1.09 2.64-3.328 2.64zm3.258 7.395c-.64.426-1.612.642-2.888.642-1.145 0-2.14-.05-2.958-.146v-5.294h2.933c2.595 0 3.857.88 3.857 2.693 0 .98-.318 1.687-.944 2.105zM225.475 58.814c.294-.274.444-.644.444-1.096 0-.47-.15-.847-.445-1.123-.293-.273-.687-.412-1.17-.412h-7.53V51.27h5.785c.503 0 .907-.144 1.2-.425.292-.285.442-.658.442-1.11 0-.47-.15-.844-.445-1.11-.293-.265-.694-.4-1.196-.4h-5.785v-4.41h7.267c.484 0 .88-.138 1.17-.412.295-.275.445-.644.445-1.096 0-.47-.15-.848-.444-1.124-.292-.273-.687-.413-1.17-.413h-8.937c-.54 0-.967.167-1.27.498-.298.328-.45.748-.45 1.25V57.48c0 .503.155.924.465 1.25.312.33.742.498 1.282.498h9.173c.483 0 .877-.138 1.17-.414zM242.016 46.59c0-2.035-.64-3.554-1.904-4.514-1.258-.953-3-1.436-5.182-1.436-1.552 0-2.928.116-4.092.346-1.04.204-1.566.862-1.566 1.956v14.566c0 .5.146.916.438 1.236.293.32.716.484 1.256.484.522 0 .94-.163 1.24-.482.3-.32.454-.736.454-1.238V52.77c.526.076 1.263.115 2.19.115 2.113 0 3.853-.534 5.17-1.584 1.325-1.056 1.996-2.64 1.996-4.71zm-9.357-2.814c.734-.096 1.47-.145 2.19-.145 2.435 0 3.62.995 3.62 3.04 0 2.186-1.244 3.248-3.807 3.248-.835 0-1.51-.03-2.005-.092v-6.05zM256.922 55.326c-1.264.744-2.508 1.12-3.7 1.12-1.49 0-2.74-.577-3.71-1.718-.974-1.146-1.47-2.747-1.47-4.755 0-1.94.46-3.514 1.366-4.68 1.472-1.89 3.896-2.26 7.16-1.008 1.1.41 1.822.24 2.145-.48.377-.808.15-1.503-.67-2.063-1.176-.82-2.842-1.235-4.952-1.235-2.68 0-4.807.87-6.318 2.587-1.51 1.713-2.273 4.036-2.273 6.905 0 2.903.72 5.233 2.138 6.928 1.426 1.7 3.562 2.563 6.35 2.563 2.197 0 4.033-.53 5.457-1.58.46-.35.743-.753.846-1.198.105-.455.032-.85-.212-1.17-.473-.677-1.203-.76-2.156-.216zM276.328 40.772c-.615 0-1.16.317-1.622.943l-8.343 11.546V42.52c0-.5-.147-.922-.438-1.25-.292-.33-.716-.498-1.257-.498-.56 0-.987.168-1.27.5-.282.327-.425.746-.425 1.247v14.988c0 .537.145.963.426 1.263.284.305.685.46 1.188.46.545 0 1.07-.327 1.568-.972l8.396-11.47v10.72c0 .484.146.895.436 1.22.292.332.725.5 1.285.5.54 0 .96-.163 1.242-.485.28-.318.424-.733.424-1.234V42.52c0-1.16-.542-1.748-1.612-1.748zM296.684 42.28c0-.47-.15-.844-.445-1.11-.294-.265-.696-.398-1.196-.398h-12.53c-.483 0-.876.133-1.17.397-.295.266-.446.64-.446 1.11 0 .452.15.825.443 1.11.294.283.69.426 1.173.426h4.57v13.69c0 .502.148.917.44 1.236.29.32.715.485 1.255.485.54 0 .963-.164 1.256-.484.29-.32.438-.734.438-1.236v-13.69h4.572c.502 0 .904-.144 1.198-.428.293-.285.442-.658.442-1.11zM310.56 56.184h-7.532v-4.912h5.787c.503 0 .906-.145 1.2-.426.292-.285.44-.658.44-1.11 0-.47-.15-.844-.444-1.11-.293-.265-.693-.4-1.195-.4h-5.787v-4.41h7.268c.484 0 .88-.138 1.17-.412.296-.275.445-.644.445-1.096 0-.47-.148-.848-.443-1.124-.292-.273-.687-.413-1.17-.413h-8.937c-.54 0-.967.168-1.27.5-.3.327-.45.747-.45 1.25v14.96c0 .503.155.924.466 1.25.31.33.74.498 1.28.498h9.175c.484 0 .878-.14 1.17-.414.295-.274.444-.644.444-1.096 0-.47-.15-.847-.443-1.123-.292-.273-.686-.41-1.17-.41zM329.198 42.28c0-.47-.15-.844-.446-1.11-.29-.265-.694-.398-1.195-.398h-12.53c-.482 0-.876.133-1.17.397-.296.266-.444.64-.444 1.11 0 .452.148.825.442 1.11.292.283.687.426 1.173.426h4.57v13.69c0 .502.147.917.438 1.236.293.32.716.485 1.256.485s.964-.164 1.257-.484c.29-.32.437-.734.437-1.236v-13.69h4.57c.503 0 .907-.144 1.2-.428.292-.285.44-.658.44-1.11zM354.52 57.508v-14.99c0-1.158-.543-1.746-1.614-1.746-.615 0-1.16.317-1.62.943l-8.343 11.546V42.52c0-.5-.146-.922-.437-1.25-.294-.33-.716-.498-1.257-.498-.56 0-.99.168-1.272.5-.282.328-.424.747-.424 1.247v14.988c0 .536.143.96.426 1.263.285.305.685.46 1.19.46.544 0 1.07-.327 1.566-.972l8.396-11.47v10.72c0 .484.147.895.438 1.22.292.332.725.5 1.284.5.54 0 .96-.163 1.243-.485.284-.32.424-.734.424-1.235zM371.623 40.772h-12.53c-.483 0-.877.133-1.17.397-.295.266-.445.64-.445 1.11 0 .452.15.825.442 1.11.294.283.688.426 1.172.426h4.57v13.69c0 .502.148.917.44 1.236.292.32.715.485 1.255.485.54 0 .963-.164 1.256-.484.29-.32.44-.734.44-1.236v-13.69h4.57c.5 0 .904-.144 1.197-.428.294-.286.443-.66.443-1.11 0-.47-.15-.844-.446-1.11-.292-.265-.694-.398-1.194-.398zM391.475 40.772c-.652 0-1.21.355-1.65 1.056l-5.196 8.392-5.3-8.365c-.444-.718-1.026-1.083-1.73-1.083-.47 0-.855.148-1.15.44-.292.294-.44.742-.44 1.333v14.962c0 1.14.535 1.72 1.59 1.72 1.053 0 1.588-.58 1.588-1.72V47.25l3.712 5.82c.408.648.937.977 1.572.977.62 0 1.14-.338 1.546-1.003l3.66-5.916v10.38c0 .5.15.917.45 1.235.304.32.722.484 1.243.484.54 0 .964-.164 1.257-.484.29-.32.438-.734.438-1.236V42.52c0-.52-.138-.943-.41-1.26-.276-.324-.675-.488-1.18-.488zM412.36 43.188c-1.53-1.78-3.718-2.68-6.505-2.68s-4.972.9-6.494 2.68c-1.515 1.774-2.284 4.066-2.284 6.812 0 2.764.77 5.06 2.287 6.824 1.52 1.77 3.705 2.668 6.492 2.668 2.785 0 4.975-.898 6.505-2.668 1.524-1.766 2.3-4.06 2.3-6.824 0-2.746-.775-5.037-2.3-6.812zm-2.613 11.466c-.9 1.19-2.21 1.793-3.892 1.793-1.666 0-2.967-.604-3.865-1.793-.907-1.2-1.368-2.766-1.368-4.654s.46-3.453 1.368-4.653c.898-1.19 2.2-1.794 3.865-1.794 1.683 0 2.992.603 3.892 1.794.906 1.2 1.366 2.765 1.366 4.653 0 1.89-.46 3.454-1.366 4.654z"/>
</svg>
