<!DOCTYPE svg PUBLIC "-//W3C//DTD SVG 1.1//EN" "http://www.w3.org/Graphics/SVG/1.1/DTD/svg11.dtd" [
	<!ENTITY ns_flows "http://ns.adobe.com/Flows/1.0/">
]><svg xmlns="http://www.w3.org/2000/svg" width="419" height="264" viewBox="-68.2177734 -67.8984375 419 264" enable-background="new -68.2177734 -67.8984375 419 264"><circle fill="#fff" cx="85.448" cy="42.094" r="3.71"/><circle fill="#fff" cx="101.418" cy="18.139" r="5.564"/><circle fill="#fff" cx="117.389" cy="26.124" r="5.564"/><circle fill="#fff" cx="133.359" cy="34.108" r="5.564"/><circle fill="#fff" cx="117.389" cy="42.094" r="5.564"/><circle fill="#fff" cx="149.328" cy="42.094" r="5.564"/><circle fill="#fff" cx="149.328" cy="58.064" r="3.71"/><circle fill="#fff" cx="165.299" cy="50.079" r="3.709"/><circle fill="#fff" cx="165.3" cy="34.108" r="5.564"/><circle fill="#fff" cx="149.329" cy="26.124" r="5.565"/><circle fill="#fff" cx="133.359" cy="50.079" r="3.71"/><circle fill="#fff" cx="165.3" cy="18.139" r="5.564"/><circle fill="#fff" cx="181.27" cy="10.153" r="3.71"/><circle fill="#fff" cx="181.27" cy="42.094" r="3.71"/><circle fill="#fff" cx="133.359" cy="18.139" r="3.71"/><circle fill="#fff" cx="117.389" cy="58.064" r="3.709"/><circle fill="#fff" cx="101.418" cy="34.108" r="5.564"/><circle fill="#EC0B43" cx="85.448" cy="26.124" r="5.564"/><circle fill="#fff" cx="69.479" cy="50.079" r="2.168"/><circle fill="#fff" cx="69.479" cy="34.109" r="2.168"/><circle fill="#fff" cx="101.418" cy="49.966" r="2.168"/><circle fill="#fff" cx="101.418" cy="2.168" r="2.168"/><circle fill="#fff" cx="133.246" cy="66.05" r="2.169"/><circle fill="#fff" cx="85.448" cy="10.153" r="2.169"/><circle fill="#fff" cx="117.389" cy="10.153" r="2.168"/><circle fill="#fff" cx="133.246" cy="66.05" r="2.169"/><circle fill="#fff" cx="213.21" cy="26.124" r="2.169"/><circle fill="#fff" cx="181.27" cy="58.064" r="2.169"/><circle fill="#fff" cx="197.239" cy="18.139" r="5.564"/><circle fill="#fff" cx="181.27" cy="26.124" r="5.564"/><circle fill="#fff" cx="197.239" cy="50.079" r="2.168"/><circle fill="#fff" cx="197.24" cy="34.109" r="3.709"/><circle fill="#fff" cx="149.328" cy="10.153" r="2.169"/><circle fill="#fff" cx="197.239" cy="2.169" r="2.168"/><circle fill="#fff" cx="213.21" cy="10.153" r="2.169"/><path fill="#fff" d="M14.988 94.436c.29-.697.345-1.266.163-1.69-.138-.326-.414-.57-.82-.728-.992-.363-1.78.11-2.305 1.386l-3.7 8.977-5.105-9.166c-.302-.568-.665-.95-1.08-1.14-.422-.193-.888-.165-1.385.093-.46.258-.713.655-.75 1.18-.035.51.1 1.02.4 1.515l6.272 10.9c-.277.718-.573 1.26-.88 1.61-.306.347-.66.516-1.08.516-.19 0-.37-.018-.532-.052-.165-.034-.36-.096-.578-.184-.232-.092-.393-.148-.48-.165-.943-.308-1.586-.042-1.896.77-.344.92-.008 1.668 1 2.218.66.368 1.553.555 2.65.555 1.217 0 2.233-.464 3.017-1.378.77-.897 1.59-2.36 2.438-4.342l4.653-10.874zM20.08 110.76c.534 0 .96-.166 1.27-.494.307-.328.463-.752.463-1.267v-6.328h8.38V109c0 .513.15.938.448 1.264.3.33.734.496 1.286.496.535 0 .962-.166 1.27-.495.308-.327.464-.752.464-1.266V93.662c0-.513-.156-.943-.462-1.278-.31-.338-.737-.51-1.272-.51-.553 0-.986.172-1.286.51-.297.336-.447.765-.447 1.278v5.895h-8.38v-5.895c0-.514-.156-.943-.462-1.278-.308-.338-.736-.51-1.27-.51-.554 0-.987.172-1.288.51-.296.336-.446.766-.446 1.278V109c0 .512.15.938.448 1.264.3.33.733.496 1.286.496zM40.23 110.76c.557 0 1.096-.333 1.603-.992l8.592-11.737V109c0 .494.15.915.447 1.25.3.338.74.51 1.313.51.554 0 .982-.167 1.273-.498.288-.325.433-.75.433-1.263V93.662c0-1.186-.555-1.788-1.65-1.788-.63 0-1.188.325-1.66.966l-8.536 11.814v-10.99c0-.513-.15-.943-.446-1.278-.3-.34-.734-.51-1.287-.51-.57 0-1.01.172-1.3.51-.287.336-.432.765-.432 1.277V109c0 .55.146.983.435 1.292.29.31.7.468 1.217.468zM69.46 100.648c.663-.35 1.2-.86 1.603-1.518.45-.735.68-1.538.68-2.384 0-3.32-2.33-5.006-6.927-5.006-1.62 0-3.092.11-4.374.326-1.084.19-1.633.836-1.633 1.92v14.77c0 1.068.54 1.687 1.607 1.84 1.28.198 2.832.3 4.616.3 5.044 0 7.602-1.968 7.602-5.846 0-1.084-.308-2.03-.916-2.813-.557-.717-1.316-1.25-2.26-1.59zm-4.67-.875h-2.65V94.79c.822-.082 1.622-.124 2.38-.124 2.472 0 3.675.787 3.675 2.405 0 1.82-1.114 2.703-3.406 2.703zm3.332 7.565c-.654.436-1.648.658-2.955.658-1.17 0-2.188-.05-3.026-.15v-5.417h3c2.656 0 3.947.9 3.947 2.756 0 1-.324 1.725-.965 2.152zM89.113 110.337c.3-.28.454-.66.454-1.12 0-.482-.153-.868-.454-1.15-.3-.28-.703-.422-1.198-.422H80.21v-5.027h5.92c.514 0 .927-.147 1.226-.436.3-.29.453-.673.453-1.135 0-.482-.154-.864-.456-1.137-.3-.27-.71-.407-1.224-.407h-5.92V94.99h7.435c.495 0 .9-.14 1.197-.422.302-.28.454-.66.454-1.122 0-.48-.152-.867-.454-1.148-.3-.28-.702-.423-1.197-.423h-9.143c-.552 0-.99.172-1.298.51-.307.335-.462.764-.462 1.278v15.31c0 .513.16.943.476 1.278.318.34.76.51 1.31.51h9.387c.495 0 .898-.143 1.198-.423zM106.04 97.828c0-2.082-.658-3.637-1.952-4.618-1.285-.976-3.068-1.47-5.3-1.47-1.588 0-2.996.12-4.187.354-1.063.21-1.603.883-1.603 2.002V109c0 .512.15.937.448 1.264.3.33.733.496 1.286.496.535 0 .962-.166 1.27-.494.308-.328.464-.752.464-1.267v-4.85c.54.08 1.292.12 2.243.12 2.16 0 3.94-.547 5.29-1.622 1.354-1.08 2.042-2.703 2.042-4.82zm-9.576-2.88c.752-.096 1.506-.147 2.243-.147 2.492 0 3.703 1.018 3.703 3.11 0 2.236-1.274 3.323-3.893 3.323-.857 0-1.546-.03-2.053-.093v-6.19zM121.29 106.767c-1.293.76-2.567 1.148-3.785 1.148-1.527 0-2.805-.592-3.797-1.76-.997-1.173-1.502-2.81-1.502-4.865 0-1.984.47-3.595 1.397-4.787 1.505-1.936 3.984-2.315 7.326-1.032 1.123.42 1.863.247 2.193-.49.386-.827.155-1.538-.686-2.11-1.203-.84-2.908-1.265-5.067-1.265-2.743 0-4.92.89-6.466 2.648-1.544 1.752-2.327 4.13-2.327 7.064 0 2.97.737 5.356 2.19 7.09 1.458 1.74 3.643 2.623 6.495 2.623 2.25 0 4.128-.545 5.584-1.618.47-.357.762-.77.866-1.226.107-.465.032-.87-.22-1.198-.48-.692-1.228-.775-2.202-.22zM141.145 91.875c-.63 0-1.187.325-1.658.966l-8.537 11.814v-10.99c0-.513-.15-.943-.447-1.278-.3-.34-.733-.51-1.286-.51-.572 0-1.01.172-1.3.51-.288.336-.433.765-.433 1.277V109c0 .55.146.983.435 1.292.29.31.7.468 1.216.468.557 0 1.095-.333 1.604-.992l8.59-11.737V109c0 .494.15.915.448 1.25.3.338.74.51 1.313.51.555 0 .983-.167 1.274-.498.288-.325.434-.75.434-1.263V93.662c0-1.186-.557-1.788-1.653-1.788zM161.974 93.42c0-.482-.153-.864-.455-1.138-.3-.27-.712-.407-1.225-.407h-12.82c-.496 0-.898.137-1.2.407-.3.274-.454.656-.454 1.138 0 .46.154.843.454 1.134.3.29.704.436 1.2.436h4.677V109c0 .512.152.938.45 1.264.3.33.73.496 1.284.496s.986-.167 1.285-.496c.297-.326.448-.75.448-1.265V94.99h4.677c.515 0 .927-.146 1.226-.436.3-.29.454-.673.454-1.134zM176.172 107.645h-7.706v-5.027h5.92c.515 0 .927-.147 1.226-.436.3-.29.453-.673.453-1.135 0-.482-.152-.864-.455-1.137-.3-.27-.71-.407-1.224-.407h-5.92V94.99h7.435c.497 0 .9-.14 1.2-.422.3-.28.454-.66.454-1.122 0-.48-.154-.867-.455-1.148-.3-.28-.703-.423-1.2-.423h-9.14c-.554 0-.99.172-1.3.51-.307.335-.46.764-.46 1.278v15.31c0 .513.16.943.476 1.278.316.34.757.51 1.31.51h9.386c.495 0 .898-.143 1.198-.423.3-.28.453-.66.453-1.12 0-.482-.152-.868-.453-1.15-.3-.28-.703-.422-1.198-.422zM195.243 93.42c0-.482-.153-.864-.456-1.138-.3-.27-.71-.407-1.224-.407h-12.82c-.494 0-.896.137-1.197.407-.303.274-.455.656-.455 1.138 0 .46.153.843.454 1.134.3.29.703.436 1.2.436h4.676V109c0 .512.15.938.448 1.264.3.33.733.496 1.285.496s.986-.167 1.285-.496c.297-.326.45-.75.45-1.265V94.99h4.675c.514 0 .928-.146 1.227-.436.3-.29.453-.673.453-1.134zM221.154 109V93.662c0-1.186-.555-1.788-1.652-1.788-.63 0-1.187.325-1.657.966l-8.537 11.814v-10.99c0-.513-.15-.943-.448-1.278-.3-.34-.733-.51-1.286-.51-.57 0-1.01.172-1.302.51-.287.337-.43.765-.43 1.277V109c0 .548.145.982.434 1.292.29.31.7.468 1.217.468.557 0 1.096-.333 1.604-.992l8.59-11.737V109c0 .494.15.915.448 1.25.3.338.74.51 1.313.51.553 0 .982-.167 1.274-.498.287-.325.432-.75.432-1.263zM238.652 91.875h-12.82c-.495 0-.897.137-1.198.407-.3.274-.455.656-.455 1.138 0 .46.15.843.452 1.134.3.29.703.436 1.2.436h4.677V109c0 .512.15.938.447 1.264.3.33.73.496 1.284.496s.988-.167 1.286-.496c.298-.326.45-.75.45-1.265V94.99h4.676c.515 0 .927-.146 1.226-.436.3-.29.454-.673.454-1.134 0-.482-.153-.864-.456-1.138-.3-.27-.71-.407-1.224-.407zM258.965 91.875c-.67 0-1.237.363-1.69 1.08l-5.316 8.587-5.424-8.56c-.453-.734-1.05-1.107-1.77-1.107-.48 0-.874.152-1.175.452-.298.3-.45.76-.45 1.363V109c0 1.167.547 1.76 1.625 1.76s1.625-.593 1.625-1.76V98.503l3.798 5.955c.417.662.958.998 1.61.998.633 0 1.165-.346 1.582-1.025l3.744-6.053V109c0 .513.155.938.463 1.265.31.33.736.495 1.27.495.552 0 .986-.167 1.285-.496.298-.326.45-.75.45-1.265V93.662c0-.53-.143-.963-.42-1.29-.282-.33-.69-.498-1.207-.498zM280.335 94.348c-1.564-1.82-3.805-2.743-6.656-2.743s-5.088.923-6.644 2.744c-1.553 1.813-2.34 4.158-2.34 6.967 0 2.828.787 5.177 2.34 6.983 1.557 1.81 3.79 2.73 6.643 2.73s5.09-.92 6.655-2.73c1.56-1.806 2.353-4.155 2.353-6.983 0-2.81-.792-5.154-2.353-6.97zm-2.674 11.73c-.92 1.22-2.26 1.837-3.98 1.837-1.705 0-3.036-.618-3.956-1.836-.928-1.23-1.4-2.83-1.4-4.763 0-1.93.472-3.533 1.4-4.76.92-1.22 2.25-1.837 3.955-1.837 1.72 0 3.06.618 3.98 1.836.93 1.228 1.4 2.83 1.4 4.76s-.47 3.536-1.4 4.763z"/></svg>